<svg width="97" height="54" viewBox="0 0 97 54" fill="none" xmlns="http://www.w3.org/2000/svg">
<g filter="url(#filter0_d)">
<path d="M48.7405 21.3533C48.3226 20.7432 48.1226 20.022 48.1701 19.2962V16.3135C48.1701 15.3992 48.3592 14.7044 48.7373 14.2291C49.1155 13.7537 49.7651 13.517 50.686 13.5191C51.5513 13.5191 52.1656 13.7213 52.5288 14.1259C52.925 14.6421 53.1178 15.2733 53.0736 15.91V16.6109H51.5256V15.9009C51.5311 15.6685 51.5161 15.4361 51.4808 15.2061C51.4585 15.0488 51.3806 14.9033 51.2596 14.7934C51.1007 14.675 50.9004 14.6175 50.6988 14.6326C50.4867 14.6176 50.2764 14.6782 50.1091 14.8025C49.9742 14.9243 49.8844 15.0838 49.8527 15.2576C49.8083 15.5011 49.7879 15.7479 49.7918 15.995V19.6147C49.7674 19.964 49.8357 20.3134 49.9905 20.6312C50.0675 20.7387 50.1744 20.824 50.2994 20.8775C50.4244 20.9311 50.5626 20.9508 50.6988 20.9346C50.8971 20.9501 51.0939 20.8912 51.2468 20.7708C51.373 20.6523 51.4541 20.4976 51.4776 20.3308C51.5137 20.0907 51.5298 19.8482 51.5256 19.6056V18.8714H53.0736V19.5419C53.1171 20.2056 52.929 20.8644 52.5384 21.4171C52.1827 21.86 51.5769 22.0815 50.686 22.0815C49.795 22.0815 49.1219 21.8449 48.7405 21.3533Z" fill="#AFB1B8"/>
<path d="M55.1857 21.3837C54.7947 20.9194 54.5992 20.2428 54.5992 19.3477V16.2104C54.5992 15.3244 54.7947 14.6538 55.1857 14.1987C55.5767 13.7436 56.2305 13.517 57.1471 13.5191C58.0573 13.5191 58.7079 13.7456 59.0989 14.1987C59.4899 14.6538 59.6886 15.3244 59.6886 16.2104V19.3477C59.6886 20.2337 59.4899 20.9134 59.0925 21.3806C58.6951 21.8479 58.0477 22.0815 57.1471 22.0815C56.2466 22.0815 55.5799 21.8449 55.1857 21.3837ZM57.8682 20.6312C58.0083 20.3404 58.072 20.0219 58.0541 19.7027V15.8615C58.0721 15.5485 58.0094 15.2361 57.8714 14.9512C57.7929 14.8414 57.6833 14.7547 57.5553 14.7011C57.4272 14.6474 57.2858 14.629 57.1471 14.6478C57.0081 14.6294 56.8664 14.6481 56.7379 14.7017C56.6094 14.7553 56.4992 14.8417 56.4196 14.9512C56.2787 15.2353 56.2148 15.5481 56.2337 15.8615V19.7209C56.2143 20.0402 56.2781 20.3591 56.4196 20.6494C56.5099 20.7473 56.6212 20.8257 56.7461 20.8795C56.8711 20.9332 57.0067 20.961 57.1439 20.961C57.2812 20.961 57.4168 20.9332 57.5417 20.8795C57.6666 20.8257 57.778 20.7473 57.8682 20.6494V20.6312Z" fill="#AFB1B8"/>
<path d="M61.5505 13.6106H63.2171L64.4702 19.3992L65.7522 13.6106H67.3739L67.5374 21.9658H66.3387L66.2105 16.159L64.9734 21.9658H64.0119L62.7299 16.1378L62.6114 21.9658H61.3999L61.5505 13.6106Z" fill="#AFB1B8"/>
<path d="M69.4059 13.6106H72.0018C73.4974 13.6106 74.2452 14.4014 74.2452 15.9831C74.2452 17.498 73.4579 18.2544 71.8832 18.2524H70.9987V21.9658H69.3962L69.4059 13.6106ZM71.6236 17.1814C71.782 17.2005 71.9428 17.1867 72.0949 17.1411C72.2471 17.0956 72.387 17.0193 72.505 16.9175C72.6887 16.6353 72.7698 16.3039 72.7357 15.974C72.7441 15.7191 72.7183 15.4642 72.6588 15.2155C72.636 15.1324 72.5959 15.0545 72.5408 14.9863C72.4858 14.918 72.417 14.8608 72.3383 14.8181C72.1159 14.7171 71.87 14.6711 71.6236 14.6846H71.0019V17.1814H71.6236Z" fill="#AFB1B8"/>
<path d="M76.5561 13.6106H78.2771L80.043 21.9658H78.5495L78.2002 20.0393H76.665L76.3061 21.9658H74.7902L76.5561 13.6106ZM78.0271 19.0715L77.4278 15.5644L76.8285 19.0715H78.0271Z" fill="#AFB1B8"/>
<path d="M81.4691 13.6106H82.5909L84.7382 18.3768V13.6106H86.0682V21.9658H85.001L82.8409 16.9903V21.9658H81.4659L81.4691 13.6106Z" fill="#AFB1B8"/>
<path d="M89.1834 18.7801L87.3983 13.6223H88.9014L89.9911 16.9354L91.0134 13.6223H92.4845L90.7218 18.7801V21.9658H89.1834V18.7801Z" fill="#AFB1B8"/>
<path d="M51.2148 25.6189V26.0558H49.9072V29.4509H49.3592V26.0558H48.0452V25.6189H51.2148Z" fill="#AFB1B8"/>
<path d="M55.3138 29.4512H54.8908C54.8478 29.4537 54.8054 29.4407 54.7722 29.4148C54.7402 29.3925 54.7157 29.362 54.7017 29.3268L54.3235 28.4166H52.5095L52.1313 29.3268C52.1206 29.3649 52.1008 29.4001 52.0736 29.43C52.0401 29.4554 51.9979 29.4683 51.955 29.4664H51.532L53.1345 25.6345H53.6921L55.3138 29.4512ZM52.6601 28.0283H54.1729L53.5319 26.4688C53.4846 26.3509 53.445 26.2303 53.4133 26.1078C53.3909 26.1806 53.3716 26.2504 53.3524 26.3111L53.2947 26.4719L52.6601 28.0283Z" fill="#AFB1B8"/>
<path d="M58.0765 29.0748C58.1769 29.0798 58.2774 29.0798 58.3778 29.0748C58.4644 29.0664 58.5502 29.0512 58.6342 29.0293C58.7127 29.0111 58.7898 28.9878 58.8649 28.9595C58.9354 28.9322 59.0059 28.8988 59.0797 28.8655V28.0037H58.4387C58.4228 28.0046 58.407 28.0023 58.3921 27.9971C58.3772 27.9919 58.3636 27.9838 58.3521 27.9734C58.3416 27.9648 58.3333 27.954 58.3277 27.9419C58.3222 27.9299 58.3196 27.9167 58.3201 27.9036V27.6093H59.5636V29.0779C59.4621 29.1466 59.3549 29.2075 59.2431 29.2599C59.1288 29.3133 59.0098 29.357 58.8874 29.3904C58.7563 29.4269 58.6223 29.4533 58.4867 29.4693C58.3314 29.4856 58.1752 29.4937 58.0188 29.4936C57.7424 29.4958 57.4682 29.4473 57.2112 29.351C56.9712 29.2596 56.7532 29.1234 56.5702 28.9504C56.3918 28.7757 56.2513 28.5695 56.1568 28.3436C56.0557 28.0896 56.0057 27.8199 56.0093 27.5486C56.006 27.2755 56.0548 27.0041 56.1536 26.7475C56.2457 26.5204 56.3865 26.3138 56.567 26.1406C56.7499 25.9682 56.968 25.833 57.208 25.7431C57.4824 25.6454 57.7737 25.597 58.0669 25.6005C58.2161 25.6003 58.3651 25.6115 58.5124 25.6339C58.6426 25.654 58.7704 25.6865 58.8938 25.731C59.0059 25.7709 59.1133 25.8217 59.2143 25.8827C59.3125 25.9426 59.4057 26.0095 59.4931 26.083L59.3393 26.3197C59.3272 26.3413 59.3093 26.3594 59.2873 26.3722C59.2653 26.3851 59.2401 26.392 59.2143 26.3925C59.1788 26.3914 59.1444 26.3809 59.1149 26.3621C59.0668 26.3379 59.0156 26.3075 58.9579 26.2711C58.8897 26.2307 58.8179 26.1961 58.7431 26.1679C58.6476 26.1317 58.549 26.1032 58.4483 26.083C58.314 26.0596 58.1777 26.0484 58.0413 26.0496C57.8298 26.0474 57.6199 26.0834 57.4227 26.1558C57.2444 26.2235 57.0836 26.3271 56.9516 26.4592C56.8188 26.597 56.7173 26.7592 56.6535 26.9356C56.5103 27.3507 56.5103 27.7981 56.6535 28.2131C56.7237 28.3933 56.8328 28.5576 56.974 28.6955C57.1055 28.827 57.265 28.9304 57.4419 28.999C57.6457 29.0652 57.8617 29.091 58.0765 29.0748Z" fill="#AFB1B8"/>
<path d="M63.1851 29.014H64.9351V29.4509H62.6499V25.6189H63.198L63.1851 29.014Z" fill="#AFB1B8"/>
<path d="M66.7555 29.4509H66.2074V25.6189H66.7555V29.4509Z" fill="#AFB1B8"/>
<path d="M68.7938 25.6371C68.8263 25.6547 68.8547 25.6785 68.8771 25.7069L71.2199 28.5955C71.2167 28.5501 71.2167 28.5045 71.2199 28.459C71.2199 28.4165 71.2199 28.374 71.2199 28.3346V25.6038H71.6974V29.4512H71.4218C71.3809 29.4543 71.34 29.447 71.3032 29.43C71.2699 29.4109 71.2406 29.3862 71.2167 29.3571L68.8771 26.4716C68.8771 26.5171 68.8771 26.5595 68.8771 26.602C68.8771 26.6445 68.8771 26.684 68.8771 26.7204V29.4512H68.4188V25.6189H68.7041C68.735 25.619 68.7656 25.6252 68.7938 25.6371Z" fill="#AFB1B8"/>
<path d="M75.7324 25.6189V26.0406H73.7903V27.3059H75.3639V27.7124H73.7903V29.0202H75.7324V29.4419H73.2262V25.6189H75.7324Z" fill="#AFB1B8"/>
<path d="M18.3035 1.95391L42.6385 8.49527V31.4173L18.3035 24.879V1.95391ZM16.7427 0V25.9925L44.1961 33.3743V7.38482L16.7427 0Z" fill="#AFB1B8"/>
<path d="M31.4565 45.4402L4 38.0522V12.0625L31.4565 19.4474V45.4402Z" fill="#AFB1B8"/>
<path d="M17.1978 1.65958L41.2155 8.11891L31.0014 17.7912L6.98057 11.3288L17.1978 1.65958ZM16.7427 0L4 12.0631L31.4565 19.4478L44.196 7.38469L16.7427 0Z" fill="#AFB1B8"/>
<path d="M33.0013 43.978L44.196 33.3774L33.0013 30.3647V43.978Z" fill="#AFB1B8"/>
</g>
<defs>
<filter id="filter0_d" x="0" y="0" width="96.4845" height="53.4402" filterUnits="userSpaceOnUse" color-interpolation-filters="sRGB">
<feFlood flood-opacity="0" result="BackgroundImageFix"/>
<feColorMatrix in="SourceAlpha" type="matrix" values="0 0 0 0 0 0 0 0 0 0 0 0 0 0 0 0 0 0 127 0"/>
<feOffset dy="4"/>
<feGaussianBlur stdDeviation="2"/>
<feColorMatrix type="matrix" values="0 0 0 0 0 0 0 0 0 0 0 0 0 0 0 0 0 0 0.25 0"/>
<feBlend mode="normal" in2="BackgroundImageFix" result="effect1_dropShadow"/>
<feBlend mode="normal" in="SourceGraphic" in2="effect1_dropShadow" result="shape"/>
</filter>
</defs>
</svg>
